<mxfile host="app.diagrams.net" agent="Mozilla/5.0 (Windows NT 10.0; Win64; x64) AppleWebKit/537.36 (KHTML, like Gecko) Chrome/132.0.0.0 Safari/537.36 Edg/132.0.0.0" version="26.0.8">
  <diagram name="PÃ¡gina-1" id="FPlHPDQcw5P2WNHFRS7O">
    <mxGraphModel dx="786" dy="699" grid="1" gridSize="10" guides="1" tooltips="1" connect="1" arrows="1" fold="1" page="1" pageScale="1" pageWidth="827" pageHeight="1169" math="0" shadow="0">
      <root>
        <mxCell id="0" />
        <mxCell id="1" parent="0" />
        <mxCell id="a1dGBfSPNIenlesCew5J-1" value="" style="rounded=0;whiteSpace=wrap;html=1;strokeWidth=4;" vertex="1" parent="1">
          <mxGeometry x="309.5" y="150" width="281" height="560" as="geometry" />
        </mxCell>
        <mxCell id="a1dGBfSPNIenlesCew5J-2" value="" style="rounded=0;whiteSpace=wrap;html=1;" vertex="1" parent="1">
          <mxGeometry x="380" y="230" width="140" height="40" as="geometry" />
        </mxCell>
        <mxCell id="a1dGBfSPNIenlesCew5J-3" value="" style="rounded=0;whiteSpace=wrap;html=1;" vertex="1" parent="1">
          <mxGeometry x="380" y="330" width="140" height="40" as="geometry" />
        </mxCell>
        <mxCell id="a1dGBfSPNIenlesCew5J-4" value="Start number" style="text;html=1;align=center;verticalAlign=middle;whiteSpace=wrap;rounded=0;" vertex="1" parent="1">
          <mxGeometry x="380" y="200" width="80" height="30" as="geometry" />
        </mxCell>
        <mxCell id="a1dGBfSPNIenlesCew5J-5" value="End number" style="text;html=1;align=center;verticalAlign=middle;whiteSpace=wrap;rounded=0;" vertex="1" parent="1">
          <mxGeometry x="380" y="300" width="80" height="30" as="geometry" />
        </mxCell>
        <mxCell id="a1dGBfSPNIenlesCew5J-6" value="Generate" style="rounded=1;whiteSpace=wrap;html=1;" vertex="1" parent="1">
          <mxGeometry x="389.5" y="400" width="120" height="60" as="geometry" />
        </mxCell>
        <mxCell id="a1dGBfSPNIenlesCew5J-7" value="" style="whiteSpace=wrap;html=1;aspect=fixed;" vertex="1" parent="1">
          <mxGeometry x="380" y="490" width="140" height="140" as="geometry" />
        </mxCell>
        <mxCell id="a1dGBfSPNIenlesCew5J-8" value="Copy" style="rounded=1;whiteSpace=wrap;html=1;" vertex="1" parent="1">
          <mxGeometry x="390" y="640" width="120" height="30" as="geometry" />
        </mxCell>
      </root>
    </mxGraphModel>
  </diagram>
</mxfile>
